<?xml version="1.0" encoding="UTF-8" standalone="no"?>
<svg
   xmlns:dc="http://purl.org/dc/elements/1.1/"
   xmlns:cc="http://creativecommons.org/ns#"
   xmlns:rdf="http://www.w3.org/1999/02/22-rdf-syntax-ns#"
   xmlns:svg="http://www.w3.org/2000/svg"
   xmlns="http://www.w3.org/2000/svg"
   xmlns:xlink="http://www.w3.org/1999/xlink"
   xmlns:sodipodi="http://sodipodi.sourceforge.net/DTD/sodipodi-0.dtd"
   xmlns:inkscape="http://www.inkscape.org/namespaces/inkscape"
   inkscape:export-ydpi="96"
   inkscape:export-xdpi="96"
   inkscape:export-filename="/Users/seanmcp/dev/seanmcp/svelte-extension/icon-128.png"
   sodipodi:docname="logo-workspace.svg"
   inkscape:version="1.0rc1 (09960d6, 2020-04-09)"
   id="svg8"
   version="1.1"
   viewBox="0 0 33.866666 33.866668"
   height="128"
   width="128">
  <defs
     id="defs2">
    <linearGradient
       id="linearGradient984"
       inkscape:collect="always">
      <stop
         id="stop980"
         offset="0"
         style="stop-color:#f82e55;stop-opacity:1" />
      <stop
         id="stop982"
         offset="1"
         style="stop-color:#ffb221;stop-opacity:1" />
    </linearGradient>
    <linearGradient
       gradientTransform="matrix(0.42145827,0,0,0.42145827,6.3971825,1.3694107e-4)"
       gradientUnits="userSpaceOnUse"
       y2="0"
       x2="50"
       y1="80"
       x1="0"
       id="linearGradient986"
       xlink:href="#linearGradient984"
       inkscape:collect="always" />
  </defs>
  <sodipodi:namedview
     inkscape:window-maximized="0"
     inkscape:window-y="559"
     inkscape:window-x="1920"
     inkscape:window-height="1067"
     inkscape:window-width="1792"
     inkscape:snap-global="true"
     inkscape:snap-center="true"
     units="px"
     showgrid="false"
     inkscape:document-rotation="0"
     inkscape:current-layer="layer1"
     inkscape:document-units="px"
     inkscape:cy="63.019213"
     inkscape:cx="47.141103"
     inkscape:zoom="3.2314321"
     inkscape:pageshadow="2"
     inkscape:pageopacity="0.0"
     borderopacity="1.0"
     bordercolor="#666666"
     pagecolor="#ffffff"
     id="base">
    <inkscape:grid
       id="grid833"
       type="xygrid" />
  </sodipodi:namedview>
  <metadata
     id="metadata5">
    <rdf:RDF>
      <cc:Work
         rdf:about="">
        <dc:format>image/svg+xml</dc:format>
        <dc:type
           rdf:resource="http://purl.org/dc/dcmitype/StillImage" />
        <dc:title></dc:title>
      </cc:Work>
    </rdf:RDF>
  </metadata>
  <g
     id="layer1"
     inkscape:groupmode="layer"
     inkscape:label="Layer 1">
    <path
       inkscape:connector-curvature="0"
       d="M 16.880134,1.3694107e-4 A 10.536456,10.536456 0 0 0 9.4832119,3.0861663 10.536456,10.536456 0 0 0 9.4329991,3.1363791 10.536456,10.536456 0 0 0 8.5604488,16.933376 a 10.536456,10.536456 0 0 0 0.8725503,13.796996 10.536456,10.536456 0 0 0 0.050213,0.05021 10.536456,10.536456 0 0 0 14.9008539,0 10.536456,10.536456 0 0 0 0.92194,-13.847206 A 10.536456,10.536456 0 0 0 24.384066,3.0861663 10.536456,10.536456 0 0 0 16.880134,1.3694107e-4 Z"
       style="fill:url(#linearGradient986);fill-opacity:1;stroke-width:0"
       id="path950" />
    <path
       inkscape:connector-curvature="0"
       d="m 16.957268,4.2147677 a 6.3218736,6.3218736 0 0 0 -4.494458,1.8512883 6.3218736,6.3218736 0 0 0 -0.03375,0.033749 6.3218736,6.3218736 0 0 0 0.03375,8.907423 6.3218736,6.3218736 0 0 0 0.03375,0.03375 l 1.892447,1.892446 -1.892447,1.892446 a 6.3218736,6.3218736 0 0 0 -0.03375,0.03375 6.3218736,6.3218736 0 0 0 -0.03375,8.906597 6.3218736,6.3218736 0 0 0 0.03375,0.03375 6.3218736,6.3218736 0 0 0 8.941172,0 6.3218736,6.3218736 0 0 0 0,-8.940348 l -1.926196,-1.926197 1.926196,-1.926195 a 6.3218736,6.3218736 0 0 0 0,-8.9411725 6.3218736,6.3218736 0 0 0 -4.446714,-1.8512888 z m -0.03293,4.2145827 a 2.1072913,2.1072913 0 0 1 1.498975,0.6173706 2.1072913,2.1072913 0 0 1 0,2.979842 l -1.489921,1.489921 -1.489921,-1.489921 a 2.1072913,2.1072913 0 0 1 0,-2.979842 2.1072913,2.1072913 0 0 1 1.480867,-0.6173706 z m 0.0091,11.9210136 1.489921,1.48992 a 2.1072912,2.1072912 0 0 1 0,2.979842 2.1072912,2.1072912 0 0 1 -2.979842,0 2.1072912,2.1072912 0 0 1 0,-2.979842 z"
       style="fill:#ffffff;fill-opacity:1;stroke-width:0"
       id="path926" />
    <path
       d="m -13.969047,19.29188 a 6.6145829,6.6145829 0 0 1 0.03142,-9.3230085 6.6145829,6.6145829 0 0 1 0.03143,-0.031425 l 4.645788,-4.6457955 4.6772209,4.6772128 a 6.6145829,6.6145829 0 0 1 7e-6,9.3544332 6.6145829,6.6145829 0 0 1 -9.3544329,8e-6 6.6145829,6.6145829 0 0 1 -0.03143,-0.03143 z"
       style="fill:#87cdde;fill-opacity:1;stroke-width:0"
       id="path964"
       inkscape:connector-curvature="0" />
    <path
       inkscape:connector-curvature="0"
       id="path966"
       style="fill:#87cdde;fill-opacity:1;stroke-width:0"
       d="m -13.969047,1.9687692 a 6.6145829,6.6145829 0 0 0 0.03142,9.3230078 6.6145829,6.6145829 0 0 0 0.03143,0.03143 l 4.6457876,4.645795 4.6772213,-4.677213 a 6.6145829,6.6145829 0 0 0 7e-6,-9.3544331 6.6145829,6.6145829 0 0 0 -9.3544329,-7.8e-6 6.6145829,6.6145829 0 0 0 -0.03143,0.031425 z" />
    <path
       inkscape:connector-curvature="0"
       id="path968"
       style="fill:#ffffff;fill-opacity:1;stroke-width:0"
       d="m -12.087931,3.8294259 a 3.9687499,3.9687499 0 0 0 0.02119,5.5914664 3.9687499,3.9687499 0 0 0 0.02119,0.021194 l 2.7851341,2.7851387 2.8063323,-2.806328 a 3.9687499,3.9687499 0 0 0 4.7e-6,-5.61266 3.9687499,3.9687499 0 0 0 -5.6126601,-4.7e-6 3.9687499,3.9687499 0 0 0 -0.02119,0.021194 z" />
    <path
       inkscape:connector-curvature="0"
       id="path970"
       style="fill:#87cdde;fill-opacity:1;stroke-width:0"
       d="m -10.195852,5.6791205 a 1.3229166,1.3229166 0 0 0 -10e-7,1.8708867 l 0.9354422,0.9354441 0.9354441,-0.9354426 a 1.3229166,1.3229166 0 0 0 1.6e-6,-1.8708866 1.3229166,1.3229166 0 0 0 -1.8708869,-1.6e-6 z" />
    <path
       d="m -12.087931,17.431223 a 3.9687499,3.9687499 0 0 1 0.02119,-5.591466 3.9687499,3.9687499 0 0 1 0.02119,-0.02119 l 2.7851341,-2.7851427 2.8063323,2.8063277 a 3.9687499,3.9687499 0 0 1 4.7e-6,5.61266 3.9687499,3.9687499 0 0 1 -5.6126601,5e-6 3.9687499,3.9687499 0 0 1 -0.02119,-0.02119 z"
       style="fill:#ffffff;fill-opacity:1;stroke-width:0"
       id="path972"
       inkscape:connector-curvature="0" />
    <path
       d="m -10.195852,15.581528 a 1.3229166,1.3229166 0 0 1 -10e-7,-1.870886 l 0.9354422,-0.935444 0.9354441,0.935442 a 1.3229166,1.3229166 0 0 1 1.6e-6,1.870887 1.3229166,1.3229166 0 0 1 -1.8708869,1e-6 z"
       style="fill:#87cdde;fill-opacity:1;stroke-width:0"
       id="path974"
       inkscape:connector-curvature="0" />
  </g>
</svg>
